<mxfile host="app.diagrams.net" modified="2020-09-14T22:37:47.619Z" agent="5.0 (Windows)" etag="shgnHnMZwwHUE71Rbiqy" version="13.7.0" type="gitlab">
  <diagram id="eqvuFODL55VOsvzA2bx3" name="Page-1">
    <mxGraphModel dx="2453" dy="1159" grid="1" gridSize="10" guides="1" tooltips="1" connect="1" arrows="1" fold="1" page="1" pageScale="1" pageWidth="850" pageHeight="1100" math="0" shadow="0">
      <root>
        <mxCell id="0" />
        <mxCell id="1" parent="0" />
        <mxCell id="_FiJG16ojwSEJQpr9RZ7-16" value="" style="ellipse;whiteSpace=wrap;html=1;aspect=fixed;strokeWidth=6;" vertex="1" parent="1">
          <mxGeometry x="-360" y="1180" width="140" height="140" as="geometry" />
        </mxCell>
        <mxCell id="_FiJG16ojwSEJQpr9RZ7-17" value="" style="triangle;whiteSpace=wrap;html=1;direction=north;fillColor=#000000;strokeWidth=6;" vertex="1" parent="1">
          <mxGeometry x="-300" y="1300" width="20" height="20" as="geometry" />
        </mxCell>
        <mxCell id="_FiJG16ojwSEJQpr9RZ7-18" value="" style="triangle;whiteSpace=wrap;html=1;direction=south;fillColor=#000000;strokeWidth=6;" vertex="1" parent="1">
          <mxGeometry x="-300" y="1280" width="20" height="20" as="geometry" />
        </mxCell>
        <mxCell id="_FiJG16ojwSEJQpr9RZ7-19" value="" style="triangle;whiteSpace=wrap;html=1;direction=north;fillColor=#000000;strokeWidth=6;" vertex="1" parent="1">
          <mxGeometry x="-300" y="1200" width="20" height="20" as="geometry" />
        </mxCell>
        <mxCell id="_FiJG16ojwSEJQpr9RZ7-20" value="" style="triangle;whiteSpace=wrap;html=1;direction=south;fillColor=#000000;strokeWidth=6;" vertex="1" parent="1">
          <mxGeometry x="-300" y="1180" width="20" height="20" as="geometry" />
        </mxCell>
        <mxCell id="_FiJG16ojwSEJQpr9RZ7-21" value="" style="endArrow=none;html=1;strokeWidth=6;" edge="1" parent="1">
          <mxGeometry width="50" height="50" relative="1" as="geometry">
            <mxPoint x="260" y="1559.9999999999995" as="sourcePoint" />
            <mxPoint x="260" y="1449.9999999999995" as="targetPoint" />
          </mxGeometry>
        </mxCell>
        <mxCell id="_FiJG16ojwSEJQpr9RZ7-22" value="" style="endArrow=none;html=1;strokeWidth=6;" edge="1" parent="1">
          <mxGeometry width="50" height="50" relative="1" as="geometry">
            <mxPoint x="410" y="1559.9999999999995" as="sourcePoint" />
            <mxPoint x="410" y="1449.9999999999995" as="targetPoint" />
          </mxGeometry>
        </mxCell>
        <mxCell id="_FiJG16ojwSEJQpr9RZ7-23" value="" style="endArrow=none;html=1;strokeWidth=6;" edge="1" parent="1">
          <mxGeometry width="50" height="50" relative="1" as="geometry">
            <mxPoint x="260" y="1559.9999999999995" as="sourcePoint" />
            <mxPoint x="410" y="1559.9999999999995" as="targetPoint" />
          </mxGeometry>
        </mxCell>
        <mxCell id="_FiJG16ojwSEJQpr9RZ7-24" value="" style="ellipse;whiteSpace=wrap;html=1;aspect=fixed;strokeWidth=6;" vertex="1" parent="1">
          <mxGeometry x="549.5" y="1180" width="140" height="140" as="geometry" />
        </mxCell>
        <mxCell id="_FiJG16ojwSEJQpr9RZ7-25" value="" style="triangle;whiteSpace=wrap;html=1;direction=north;fillColor=#000000;strokeWidth=6;" vertex="1" parent="1">
          <mxGeometry x="609.5" y="1180" width="20" height="20" as="geometry" />
        </mxCell>
        <mxCell id="_FiJG16ojwSEJQpr9RZ7-26" value="" style="rounded=0;whiteSpace=wrap;html=1;fillColor=#FFFFFF;strokeWidth=6;" vertex="1" parent="1">
          <mxGeometry x="-590" y="877.5" width="120" height="60" as="geometry" />
        </mxCell>
        <mxCell id="_FiJG16ojwSEJQpr9RZ7-27" value="" style="endArrow=none;html=1;exitX=0.5;exitY=1;exitDx=0;exitDy=0;entryX=0.5;entryY=0;entryDx=0;entryDy=0;strokeWidth=6;" edge="1" parent="1" source="_FiJG16ojwSEJQpr9RZ7-26" target="_FiJG16ojwSEJQpr9RZ7-26">
          <mxGeometry width="50" height="50" relative="1" as="geometry">
            <mxPoint x="-580.5" y="927.5" as="sourcePoint" />
            <mxPoint x="-530.5" y="877.5" as="targetPoint" />
          </mxGeometry>
        </mxCell>
        <mxCell id="_FiJG16ojwSEJQpr9RZ7-28" value="" style="endArrow=classic;html=1;entryX=0.75;entryY=0;entryDx=0;entryDy=0;strokeWidth=6;" edge="1" parent="1" target="_FiJG16ojwSEJQpr9RZ7-26">
          <mxGeometry width="50" height="50" relative="1" as="geometry">
            <mxPoint x="-500.5" y="937.4999999999995" as="sourcePoint" />
            <mxPoint x="-450.5" y="887.5" as="targetPoint" />
          </mxGeometry>
        </mxCell>
        <mxCell id="_FiJG16ojwSEJQpr9RZ7-29" value="" style="endArrow=none;html=1;strokeWidth=6;" edge="1" parent="1">
          <mxGeometry width="50" height="50" relative="1" as="geometry">
            <mxPoint x="-570.5" y="917.4999999999995" as="sourcePoint" />
            <mxPoint x="-550.5" y="917.4999999999995" as="targetPoint" />
          </mxGeometry>
        </mxCell>
        <mxCell id="_FiJG16ojwSEJQpr9RZ7-30" value="" style="endArrow=none;html=1;strokeWidth=6;" edge="1" parent="1">
          <mxGeometry width="50" height="50" relative="1" as="geometry">
            <mxPoint x="-560" y="852.5000000000005" as="sourcePoint" />
            <mxPoint x="-560" y="852.5000000000005" as="targetPoint" />
          </mxGeometry>
        </mxCell>
        <mxCell id="_FiJG16ojwSEJQpr9RZ7-31" value="" style="endArrow=none;html=1;strokeWidth=6;" edge="1" parent="1">
          <mxGeometry width="50" height="50" relative="1" as="geometry">
            <mxPoint x="-570.5" y="897.4999999999995" as="sourcePoint" />
            <mxPoint x="-550.5" y="897.4999999999995" as="targetPoint" />
          </mxGeometry>
        </mxCell>
        <mxCell id="_FiJG16ojwSEJQpr9RZ7-32" value="" style="rounded=0;whiteSpace=wrap;html=1;fillColor=#FFFFFF;strokeWidth=6;" vertex="1" parent="1">
          <mxGeometry x="-120" y="877.5" width="120" height="60" as="geometry" />
        </mxCell>
        <mxCell id="_FiJG16ojwSEJQpr9RZ7-33" value="" style="endArrow=none;html=1;exitX=0.5;exitY=1;exitDx=0;exitDy=0;entryX=0.5;entryY=0;entryDx=0;entryDy=0;strokeWidth=6;" edge="1" parent="1" source="_FiJG16ojwSEJQpr9RZ7-32" target="_FiJG16ojwSEJQpr9RZ7-32">
          <mxGeometry width="50" height="50" relative="1" as="geometry">
            <mxPoint x="-110.5" y="917.5" as="sourcePoint" />
            <mxPoint x="-60.5" y="867.5" as="targetPoint" />
          </mxGeometry>
        </mxCell>
        <mxCell id="_FiJG16ojwSEJQpr9RZ7-34" value="" style="endArrow=classic;html=1;entryX=0.75;entryY=0;entryDx=0;entryDy=0;strokeWidth=6;" edge="1" parent="1" target="_FiJG16ojwSEJQpr9RZ7-32">
          <mxGeometry width="50" height="50" relative="1" as="geometry">
            <mxPoint x="-30.5" y="937.4999999999995" as="sourcePoint" />
            <mxPoint x="19.5" y="887.5" as="targetPoint" />
          </mxGeometry>
        </mxCell>
        <mxCell id="_FiJG16ojwSEJQpr9RZ7-35" value="" style="endArrow=none;html=1;strokeWidth=6;" edge="1" parent="1">
          <mxGeometry width="50" height="50" relative="1" as="geometry">
            <mxPoint x="-100.5" y="917.4999999999995" as="sourcePoint" />
            <mxPoint x="-80.5" y="917.4999999999995" as="targetPoint" />
          </mxGeometry>
        </mxCell>
        <mxCell id="_FiJG16ojwSEJQpr9RZ7-36" value="" style="endArrow=none;html=1;strokeWidth=6;" edge="1" parent="1">
          <mxGeometry width="50" height="50" relative="1" as="geometry">
            <mxPoint x="-100.5" y="897.4999999999995" as="sourcePoint" />
            <mxPoint x="-80.5" y="897.4999999999995" as="targetPoint" />
          </mxGeometry>
        </mxCell>
        <mxCell id="_FiJG16ojwSEJQpr9RZ7-70" value="" style="rounded=0;whiteSpace=wrap;html=1;fillColor=#FFFFFF;strokeWidth=6;" vertex="1" parent="1">
          <mxGeometry x="265.5" y="877.5" width="120" height="60" as="geometry" />
        </mxCell>
        <mxCell id="_FiJG16ojwSEJQpr9RZ7-71" value="" style="endArrow=none;html=1;exitX=0.5;exitY=1;exitDx=0;exitDy=0;entryX=0.5;entryY=0;entryDx=0;entryDy=0;strokeWidth=6;" edge="1" parent="1" source="_FiJG16ojwSEJQpr9RZ7-70" target="_FiJG16ojwSEJQpr9RZ7-70">
          <mxGeometry width="50" height="50" relative="1" as="geometry">
            <mxPoint x="275" y="927.5" as="sourcePoint" />
            <mxPoint x="325" y="877.5" as="targetPoint" />
          </mxGeometry>
        </mxCell>
        <mxCell id="_FiJG16ojwSEJQpr9RZ7-72" value="" style="endArrow=classic;html=1;entryX=0.75;entryY=0;entryDx=0;entryDy=0;strokeWidth=6;" edge="1" parent="1" target="_FiJG16ojwSEJQpr9RZ7-70">
          <mxGeometry width="50" height="50" relative="1" as="geometry">
            <mxPoint x="355" y="937.4999999999995" as="sourcePoint" />
            <mxPoint x="405" y="887.5" as="targetPoint" />
          </mxGeometry>
        </mxCell>
        <mxCell id="_FiJG16ojwSEJQpr9RZ7-73" value="" style="endArrow=none;html=1;strokeWidth=6;" edge="1" parent="1">
          <mxGeometry width="50" height="50" relative="1" as="geometry">
            <mxPoint x="285" y="917.4999999999995" as="sourcePoint" />
            <mxPoint x="305" y="917.4999999999995" as="targetPoint" />
          </mxGeometry>
        </mxCell>
        <mxCell id="_FiJG16ojwSEJQpr9RZ7-74" value="" style="endArrow=none;html=1;strokeWidth=6;" edge="1" parent="1">
          <mxGeometry width="50" height="50" relative="1" as="geometry">
            <mxPoint x="285" y="897.4999999999995" as="sourcePoint" />
            <mxPoint x="305" y="897.4999999999995" as="targetPoint" />
          </mxGeometry>
        </mxCell>
        <mxCell id="_FiJG16ojwSEJQpr9RZ7-75" value="" style="rounded=0;whiteSpace=wrap;html=1;strokeWidth=6;" vertex="1" parent="1">
          <mxGeometry x="385.5" y="892.5" width="39.5" height="25" as="geometry" />
        </mxCell>
        <mxCell id="_FiJG16ojwSEJQpr9RZ7-76" value="" style="endArrow=none;html=1;exitX=0.34;exitY=1;exitDx=0;exitDy=0;exitPerimeter=0;entryX=0.5;entryY=0;entryDx=0;entryDy=0;strokeWidth=6;" edge="1" parent="1" source="_FiJG16ojwSEJQpr9RZ7-75" target="_FiJG16ojwSEJQpr9RZ7-75">
          <mxGeometry width="50" height="50" relative="1" as="geometry">
            <mxPoint x="375" y="947.5" as="sourcePoint" />
            <mxPoint x="445" y="937.5" as="targetPoint" />
          </mxGeometry>
        </mxCell>
        <mxCell id="_FiJG16ojwSEJQpr9RZ7-77" value="" style="endArrow=none;html=1;strokeWidth=6;" edge="1" parent="1">
          <mxGeometry width="50" height="50" relative="1" as="geometry">
            <mxPoint x="265.4999999999991" y="917.4999999999995" as="sourcePoint" />
            <mxPoint x="255" y="897.4999999999995" as="targetPoint" />
            <Array as="points" />
          </mxGeometry>
        </mxCell>
        <mxCell id="_FiJG16ojwSEJQpr9RZ7-78" value="" style="endArrow=none;html=1;strokeWidth=6;" edge="1" parent="1">
          <mxGeometry width="50" height="50" relative="1" as="geometry">
            <mxPoint x="245.4999999999991" y="917.4999999999995" as="sourcePoint" />
            <mxPoint x="235" y="897.4999999999995" as="targetPoint" />
            <Array as="points" />
          </mxGeometry>
        </mxCell>
        <mxCell id="_FiJG16ojwSEJQpr9RZ7-79" value="" style="endArrow=none;html=1;strokeWidth=6;" edge="1" parent="1">
          <mxGeometry width="50" height="50" relative="1" as="geometry">
            <mxPoint x="245" y="917.4999999999995" as="sourcePoint" />
            <mxPoint x="255" y="897.4999999999995" as="targetPoint" />
            <Array as="points" />
          </mxGeometry>
        </mxCell>
        <mxCell id="_FiJG16ojwSEJQpr9RZ7-80" value="" style="endArrow=none;html=1;strokeWidth=6;" edge="1" parent="1">
          <mxGeometry width="50" height="50" relative="1" as="geometry">
            <mxPoint x="225" y="917.4999999999995" as="sourcePoint" />
            <mxPoint x="235" y="897.4999999999995" as="targetPoint" />
            <Array as="points" />
          </mxGeometry>
        </mxCell>
        <mxCell id="_FiJG16ojwSEJQpr9RZ7-81" value="" style="endArrow=none;html=1;jumpStyle=arc;entryX=1;entryY=0.5;entryDx=0;entryDy=0;exitX=0.5;exitY=1;exitDx=0;exitDy=0;strokeWidth=6;" edge="1" parent="1" source="_FiJG16ojwSEJQpr9RZ7-141" target="_FiJG16ojwSEJQpr9RZ7-25">
          <mxGeometry width="50" height="50" relative="1" as="geometry">
            <mxPoint x="620" y="250" as="sourcePoint" />
            <mxPoint x="620" y="1010" as="targetPoint" />
            <Array as="points" />
          </mxGeometry>
        </mxCell>
        <mxCell id="_FiJG16ojwSEJQpr9RZ7-104" value="" style="endArrow=none;html=1;" edge="1" parent="1">
          <mxGeometry width="50" height="50" relative="1" as="geometry">
            <mxPoint x="359.74341649017515" y="401.58113883005853" as="sourcePoint" />
            <mxPoint x="360" y="402.5" as="targetPoint" />
          </mxGeometry>
        </mxCell>
        <mxCell id="_FiJG16ojwSEJQpr9RZ7-105" value="" style="endArrow=none;html=1;jumpStyle=none;exitX=1;exitY=0.5;exitDx=0;exitDy=0;" edge="1" parent="1">
          <mxGeometry width="50" height="50" relative="1" as="geometry">
            <mxPoint x="280" y="400" as="sourcePoint" />
            <mxPoint x="280" y="401" as="targetPoint" />
          </mxGeometry>
        </mxCell>
        <mxCell id="_FiJG16ojwSEJQpr9RZ7-107" value="" style="endArrow=none;html=1;strokeWidth=6;" edge="1" parent="1">
          <mxGeometry width="50" height="50" relative="1" as="geometry">
            <mxPoint x="-90" y="1559.9999999999995" as="sourcePoint" />
            <mxPoint x="-90" y="1449.9999999999995" as="targetPoint" />
          </mxGeometry>
        </mxCell>
        <mxCell id="_FiJG16ojwSEJQpr9RZ7-108" value="" style="endArrow=none;html=1;strokeWidth=6;" edge="1" parent="1">
          <mxGeometry width="50" height="50" relative="1" as="geometry">
            <mxPoint x="60" y="1559.9999999999995" as="sourcePoint" />
            <mxPoint x="60" y="1449.9999999999995" as="targetPoint" />
          </mxGeometry>
        </mxCell>
        <mxCell id="_FiJG16ojwSEJQpr9RZ7-109" value="" style="endArrow=none;html=1;strokeWidth=6;" edge="1" parent="1">
          <mxGeometry width="50" height="50" relative="1" as="geometry">
            <mxPoint x="-90" y="1559.9999999999995" as="sourcePoint" />
            <mxPoint x="60" y="1559.9999999999995" as="targetPoint" />
          </mxGeometry>
        </mxCell>
        <mxCell id="_FiJG16ojwSEJQpr9RZ7-125" value="" style="endArrow=none;html=1;exitX=0.5;exitY=0;exitDx=0;exitDy=0;entryX=0.5;entryY=1;entryDx=0;entryDy=0;strokeWidth=6;" edge="1" parent="1" source="_FiJG16ojwSEJQpr9RZ7-127">
          <mxGeometry width="50" height="50" relative="1" as="geometry">
            <mxPoint x="-290" y="1180" as="sourcePoint" />
            <mxPoint x="-290" y="822.4999999999998" as="targetPoint" />
          </mxGeometry>
        </mxCell>
        <mxCell id="_FiJG16ojwSEJQpr9RZ7-126" value="" style="edgeStyle=orthogonalEdgeStyle;rounded=0;jumpStyle=none;jumpSize=6;orthogonalLoop=1;jettySize=auto;html=1;startSize=12;endArrow=none;endFill=0;strokeWidth=6;" edge="1" parent="1" source="_FiJG16ojwSEJQpr9RZ7-127">
          <mxGeometry relative="1" as="geometry">
            <mxPoint x="-90" y="918" as="targetPoint" />
            <Array as="points">
              <mxPoint x="-90" y="965" />
            </Array>
          </mxGeometry>
        </mxCell>
        <mxCell id="_FiJG16ojwSEJQpr9RZ7-146" value="" style="edgeStyle=orthogonalEdgeStyle;rounded=0;orthogonalLoop=1;jettySize=auto;html=1;endArrow=none;endFill=0;strokeWidth=6;" edge="1" parent="1" source="_FiJG16ojwSEJQpr9RZ7-127">
          <mxGeometry relative="1" as="geometry">
            <mxPoint x="-560" y="917" as="targetPoint" />
          </mxGeometry>
        </mxCell>
        <mxCell id="_FiJG16ojwSEJQpr9RZ7-127" value="" style="ellipse;whiteSpace=wrap;html=1;aspect=fixed;fillColor=#000000;strokeWidth=6;" vertex="1" parent="1">
          <mxGeometry x="-295" y="960" width="10" height="10" as="geometry" />
        </mxCell>
        <mxCell id="_FiJG16ojwSEJQpr9RZ7-128" value="" style="endArrow=none;html=1;exitX=0;exitY=0.5;exitDx=0;exitDy=0;entryX=0.5;entryY=1;entryDx=0;entryDy=0;strokeWidth=6;" edge="1" parent="1" source="_FiJG16ojwSEJQpr9RZ7-20" target="_FiJG16ojwSEJQpr9RZ7-127">
          <mxGeometry width="50" height="50" relative="1" as="geometry">
            <mxPoint x="-290" y="1180" as="sourcePoint" />
            <mxPoint x="-290" y="822.5" as="targetPoint" />
          </mxGeometry>
        </mxCell>
        <mxCell id="_FiJG16ojwSEJQpr9RZ7-131" value="" style="edgeStyle=orthogonalEdgeStyle;rounded=0;jumpStyle=none;jumpSize=6;orthogonalLoop=1;jettySize=auto;html=1;startSize=12;endArrow=none;endFill=0;entryX=0.5;entryY=1;entryDx=0;entryDy=0;strokeWidth=6;" edge="1" parent="1" target="_FiJG16ojwSEJQpr9RZ7-24">
          <mxGeometry relative="1" as="geometry">
            <mxPoint x="340" y="1449.9999999999995" as="sourcePoint" />
            <mxPoint x="365" y="1424.9999999999998" as="targetPoint" />
            <Array as="points">
              <mxPoint x="340" y="1420" />
              <mxPoint x="620" y="1420" />
            </Array>
          </mxGeometry>
        </mxCell>
        <mxCell id="_FiJG16ojwSEJQpr9RZ7-132" value="" style="endArrow=none;html=1;" edge="1" parent="1">
          <mxGeometry width="50" height="50" relative="1" as="geometry">
            <mxPoint x="280" y="400" as="sourcePoint" />
            <mxPoint x="280" y="400" as="targetPoint" />
          </mxGeometry>
        </mxCell>
        <mxCell id="_FiJG16ojwSEJQpr9RZ7-140" value="" style="edgeStyle=orthogonalEdgeStyle;rounded=0;jumpStyle=arc;jumpSize=6;orthogonalLoop=1;jettySize=auto;html=1;startSize=12;endArrow=none;endFill=0;strokeWidth=6;" edge="1" parent="1" source="_FiJG16ojwSEJQpr9RZ7-141">
          <mxGeometry relative="1" as="geometry">
            <mxPoint x="295" y="917" as="targetPoint" />
            <Array as="points">
              <mxPoint x="295" y="964" />
              <mxPoint x="295" y="920" />
            </Array>
          </mxGeometry>
        </mxCell>
        <mxCell id="_FiJG16ojwSEJQpr9RZ7-141" value="" style="ellipse;whiteSpace=wrap;html=1;aspect=fixed;fillColor=#000000;strokeWidth=6;" vertex="1" parent="1">
          <mxGeometry x="613.25" y="957.5" width="12.5" height="12.5" as="geometry" />
        </mxCell>
        <mxCell id="_FiJG16ojwSEJQpr9RZ7-142" value="" style="endArrow=none;html=1;jumpStyle=arc;entryX=0.5;entryY=0;entryDx=0;entryDy=0;strokeWidth=6;" edge="1" parent="1" target="_FiJG16ojwSEJQpr9RZ7-141">
          <mxGeometry width="50" height="50" relative="1" as="geometry">
            <mxPoint x="621" y="670" as="sourcePoint" />
            <mxPoint x="619.5" y="1180" as="targetPoint" />
            <Array as="points" />
          </mxGeometry>
        </mxCell>
        <mxCell id="_FiJG16ojwSEJQpr9RZ7-143" value="" style="edgeStyle=orthogonalEdgeStyle;rounded=0;jumpStyle=none;jumpSize=6;orthogonalLoop=1;jettySize=auto;html=1;startSize=12;endArrow=none;endFill=0;entryX=0;entryY=0.5;entryDx=0;entryDy=0;strokeWidth=6;" edge="1" parent="1" target="_FiJG16ojwSEJQpr9RZ7-17">
          <mxGeometry relative="1" as="geometry">
            <mxPoint x="-10" y="1449.9999999999995" as="sourcePoint" />
            <mxPoint x="-35" y="1425" as="targetPoint" />
            <Array as="points">
              <mxPoint x="-10" y="1420" />
              <mxPoint x="-290" y="1420" />
            </Array>
          </mxGeometry>
        </mxCell>
        <mxCell id="_FiJG16ojwSEJQpr9RZ7-149" value="" style="ellipse;whiteSpace=wrap;html=1;aspect=fixed;strokeWidth=6;" vertex="1" parent="1">
          <mxGeometry x="1130" y="1170" width="140" height="140" as="geometry" />
        </mxCell>
        <mxCell id="_FiJG16ojwSEJQpr9RZ7-150" value="" style="triangle;whiteSpace=wrap;html=1;direction=north;fillColor=#000000;strokeWidth=6;" vertex="1" parent="1">
          <mxGeometry x="1190" y="1290" width="20" height="20" as="geometry" />
        </mxCell>
        <mxCell id="_FiJG16ojwSEJQpr9RZ7-151" value="" style="triangle;whiteSpace=wrap;html=1;direction=south;fillColor=#000000;strokeWidth=6;" vertex="1" parent="1">
          <mxGeometry x="1190" y="1270" width="20" height="20" as="geometry" />
        </mxCell>
        <mxCell id="_FiJG16ojwSEJQpr9RZ7-152" value="" style="triangle;whiteSpace=wrap;html=1;direction=north;fillColor=#000000;strokeWidth=6;" vertex="1" parent="1">
          <mxGeometry x="1190" y="1190" width="20" height="20" as="geometry" />
        </mxCell>
        <mxCell id="_FiJG16ojwSEJQpr9RZ7-153" value="" style="triangle;whiteSpace=wrap;html=1;direction=south;fillColor=#000000;strokeWidth=6;" vertex="1" parent="1">
          <mxGeometry x="1190" y="1170" width="20" height="20" as="geometry" />
        </mxCell>
        <mxCell id="_FiJG16ojwSEJQpr9RZ7-154" value="" style="endArrow=none;html=1;strokeWidth=6;" edge="1" parent="1">
          <mxGeometry width="50" height="50" relative="1" as="geometry">
            <mxPoint x="1750" y="1549.9999999999995" as="sourcePoint" />
            <mxPoint x="1750" y="1439.9999999999995" as="targetPoint" />
          </mxGeometry>
        </mxCell>
        <mxCell id="_FiJG16ojwSEJQpr9RZ7-155" value="" style="endArrow=none;html=1;strokeWidth=6;" edge="1" parent="1">
          <mxGeometry width="50" height="50" relative="1" as="geometry">
            <mxPoint x="1900" y="1549.9999999999995" as="sourcePoint" />
            <mxPoint x="1900" y="1439.9999999999995" as="targetPoint" />
          </mxGeometry>
        </mxCell>
        <mxCell id="_FiJG16ojwSEJQpr9RZ7-156" value="" style="endArrow=none;html=1;strokeWidth=6;" edge="1" parent="1">
          <mxGeometry width="50" height="50" relative="1" as="geometry">
            <mxPoint x="1750" y="1549.9999999999995" as="sourcePoint" />
            <mxPoint x="1900" y="1549.9999999999995" as="targetPoint" />
          </mxGeometry>
        </mxCell>
        <mxCell id="_FiJG16ojwSEJQpr9RZ7-157" value="" style="ellipse;whiteSpace=wrap;html=1;aspect=fixed;strokeWidth=6;" vertex="1" parent="1">
          <mxGeometry x="2039.5" y="1170" width="140" height="140" as="geometry" />
        </mxCell>
        <mxCell id="_FiJG16ojwSEJQpr9RZ7-158" value="" style="triangle;whiteSpace=wrap;html=1;direction=north;fillColor=#000000;strokeWidth=6;" vertex="1" parent="1">
          <mxGeometry x="2099.5" y="1170" width="20" height="20" as="geometry" />
        </mxCell>
        <mxCell id="_FiJG16ojwSEJQpr9RZ7-159" value="" style="rounded=0;whiteSpace=wrap;html=1;fillColor=#FFFFFF;strokeWidth=6;" vertex="1" parent="1">
          <mxGeometry x="900" y="867.5" width="120" height="60" as="geometry" />
        </mxCell>
        <mxCell id="_FiJG16ojwSEJQpr9RZ7-160" value="" style="endArrow=none;html=1;exitX=0.5;exitY=1;exitDx=0;exitDy=0;entryX=0.5;entryY=0;entryDx=0;entryDy=0;strokeWidth=6;" edge="1" parent="1" source="_FiJG16ojwSEJQpr9RZ7-159" target="_FiJG16ojwSEJQpr9RZ7-159">
          <mxGeometry width="50" height="50" relative="1" as="geometry">
            <mxPoint x="909.5" y="917.5" as="sourcePoint" />
            <mxPoint x="959.5" y="867.5" as="targetPoint" />
          </mxGeometry>
        </mxCell>
        <mxCell id="_FiJG16ojwSEJQpr9RZ7-161" value="" style="endArrow=classic;html=1;entryX=0.75;entryY=0;entryDx=0;entryDy=0;strokeWidth=6;" edge="1" parent="1" target="_FiJG16ojwSEJQpr9RZ7-159">
          <mxGeometry width="50" height="50" relative="1" as="geometry">
            <mxPoint x="989.5" y="927.4999999999995" as="sourcePoint" />
            <mxPoint x="1039.5" y="877.5" as="targetPoint" />
          </mxGeometry>
        </mxCell>
        <mxCell id="_FiJG16ojwSEJQpr9RZ7-162" value="" style="endArrow=none;html=1;strokeWidth=6;" edge="1" parent="1">
          <mxGeometry width="50" height="50" relative="1" as="geometry">
            <mxPoint x="919.5" y="907.4999999999995" as="sourcePoint" />
            <mxPoint x="939.5" y="907.4999999999995" as="targetPoint" />
          </mxGeometry>
        </mxCell>
        <mxCell id="_FiJG16ojwSEJQpr9RZ7-163" value="" style="endArrow=none;html=1;strokeWidth=6;" edge="1" parent="1">
          <mxGeometry width="50" height="50" relative="1" as="geometry">
            <mxPoint x="930" y="842.5000000000005" as="sourcePoint" />
            <mxPoint x="930" y="842.5000000000005" as="targetPoint" />
          </mxGeometry>
        </mxCell>
        <mxCell id="_FiJG16ojwSEJQpr9RZ7-164" value="" style="endArrow=none;html=1;strokeWidth=6;" edge="1" parent="1">
          <mxGeometry width="50" height="50" relative="1" as="geometry">
            <mxPoint x="919.5" y="887.4999999999995" as="sourcePoint" />
            <mxPoint x="939.5" y="887.4999999999995" as="targetPoint" />
          </mxGeometry>
        </mxCell>
        <mxCell id="_FiJG16ojwSEJQpr9RZ7-165" value="" style="rounded=0;whiteSpace=wrap;html=1;fillColor=#FFFFFF;strokeWidth=6;" vertex="1" parent="1">
          <mxGeometry x="1370" y="867.5" width="120" height="60" as="geometry" />
        </mxCell>
        <mxCell id="_FiJG16ojwSEJQpr9RZ7-166" value="" style="endArrow=none;html=1;exitX=0.5;exitY=1;exitDx=0;exitDy=0;entryX=0.5;entryY=0;entryDx=0;entryDy=0;strokeWidth=6;" edge="1" parent="1" source="_FiJG16ojwSEJQpr9RZ7-165" target="_FiJG16ojwSEJQpr9RZ7-165">
          <mxGeometry width="50" height="50" relative="1" as="geometry">
            <mxPoint x="1379.5" y="907.5" as="sourcePoint" />
            <mxPoint x="1429.5" y="857.5" as="targetPoint" />
          </mxGeometry>
        </mxCell>
        <mxCell id="_FiJG16ojwSEJQpr9RZ7-167" value="" style="endArrow=classic;html=1;entryX=0.75;entryY=0;entryDx=0;entryDy=0;strokeWidth=6;" edge="1" parent="1" target="_FiJG16ojwSEJQpr9RZ7-165">
          <mxGeometry width="50" height="50" relative="1" as="geometry">
            <mxPoint x="1459.5" y="927.4999999999995" as="sourcePoint" />
            <mxPoint x="1509.5" y="877.5" as="targetPoint" />
          </mxGeometry>
        </mxCell>
        <mxCell id="_FiJG16ojwSEJQpr9RZ7-168" value="" style="endArrow=none;html=1;strokeWidth=6;" edge="1" parent="1">
          <mxGeometry width="50" height="50" relative="1" as="geometry">
            <mxPoint x="1389.5" y="907.4999999999995" as="sourcePoint" />
            <mxPoint x="1409.5" y="907.4999999999995" as="targetPoint" />
          </mxGeometry>
        </mxCell>
        <mxCell id="_FiJG16ojwSEJQpr9RZ7-169" value="" style="endArrow=none;html=1;strokeWidth=6;" edge="1" parent="1">
          <mxGeometry width="50" height="50" relative="1" as="geometry">
            <mxPoint x="1389.5" y="887.4999999999995" as="sourcePoint" />
            <mxPoint x="1409.5" y="887.4999999999995" as="targetPoint" />
          </mxGeometry>
        </mxCell>
        <mxCell id="_FiJG16ojwSEJQpr9RZ7-170" value="" style="rounded=0;whiteSpace=wrap;html=1;fillColor=#FFFFFF;strokeWidth=6;" vertex="1" parent="1">
          <mxGeometry x="1755.5" y="867.5" width="120" height="60" as="geometry" />
        </mxCell>
        <mxCell id="_FiJG16ojwSEJQpr9RZ7-171" value="" style="endArrow=none;html=1;exitX=0.5;exitY=1;exitDx=0;exitDy=0;entryX=0.5;entryY=0;entryDx=0;entryDy=0;strokeWidth=6;" edge="1" parent="1" source="_FiJG16ojwSEJQpr9RZ7-170" target="_FiJG16ojwSEJQpr9RZ7-170">
          <mxGeometry width="50" height="50" relative="1" as="geometry">
            <mxPoint x="1765" y="917.5" as="sourcePoint" />
            <mxPoint x="1815" y="867.5" as="targetPoint" />
          </mxGeometry>
        </mxCell>
        <mxCell id="_FiJG16ojwSEJQpr9RZ7-172" value="" style="endArrow=classic;html=1;entryX=0.75;entryY=0;entryDx=0;entryDy=0;strokeWidth=6;" edge="1" parent="1" target="_FiJG16ojwSEJQpr9RZ7-170">
          <mxGeometry width="50" height="50" relative="1" as="geometry">
            <mxPoint x="1845" y="927.4999999999995" as="sourcePoint" />
            <mxPoint x="1895" y="877.5" as="targetPoint" />
          </mxGeometry>
        </mxCell>
        <mxCell id="_FiJG16ojwSEJQpr9RZ7-173" value="" style="endArrow=none;html=1;strokeWidth=6;" edge="1" parent="1">
          <mxGeometry width="50" height="50" relative="1" as="geometry">
            <mxPoint x="1775" y="907.4999999999995" as="sourcePoint" />
            <mxPoint x="1795" y="907.4999999999995" as="targetPoint" />
          </mxGeometry>
        </mxCell>
        <mxCell id="_FiJG16ojwSEJQpr9RZ7-174" value="" style="endArrow=none;html=1;strokeWidth=6;" edge="1" parent="1">
          <mxGeometry width="50" height="50" relative="1" as="geometry">
            <mxPoint x="1775" y="887.4999999999995" as="sourcePoint" />
            <mxPoint x="1795" y="887.4999999999995" as="targetPoint" />
          </mxGeometry>
        </mxCell>
        <mxCell id="_FiJG16ojwSEJQpr9RZ7-175" value="" style="rounded=0;whiteSpace=wrap;html=1;strokeWidth=6;" vertex="1" parent="1">
          <mxGeometry x="1875.5" y="882.5" width="39.5" height="25" as="geometry" />
        </mxCell>
        <mxCell id="_FiJG16ojwSEJQpr9RZ7-176" value="" style="endArrow=none;html=1;exitX=0.34;exitY=1;exitDx=0;exitDy=0;exitPerimeter=0;entryX=0.5;entryY=0;entryDx=0;entryDy=0;strokeWidth=6;" edge="1" parent="1" source="_FiJG16ojwSEJQpr9RZ7-175" target="_FiJG16ojwSEJQpr9RZ7-175">
          <mxGeometry width="50" height="50" relative="1" as="geometry">
            <mxPoint x="1865" y="937.5" as="sourcePoint" />
            <mxPoint x="1935" y="927.5" as="targetPoint" />
          </mxGeometry>
        </mxCell>
        <mxCell id="_FiJG16ojwSEJQpr9RZ7-177" value="" style="endArrow=none;html=1;strokeWidth=6;" edge="1" parent="1">
          <mxGeometry width="50" height="50" relative="1" as="geometry">
            <mxPoint x="1755.499999999999" y="907.4999999999995" as="sourcePoint" />
            <mxPoint x="1745" y="887.4999999999995" as="targetPoint" />
            <Array as="points" />
          </mxGeometry>
        </mxCell>
        <mxCell id="_FiJG16ojwSEJQpr9RZ7-178" value="" style="endArrow=none;html=1;strokeWidth=6;" edge="1" parent="1">
          <mxGeometry width="50" height="50" relative="1" as="geometry">
            <mxPoint x="1735.499999999999" y="907.4999999999995" as="sourcePoint" />
            <mxPoint x="1725" y="887.4999999999995" as="targetPoint" />
            <Array as="points" />
          </mxGeometry>
        </mxCell>
        <mxCell id="_FiJG16ojwSEJQpr9RZ7-179" value="" style="endArrow=none;html=1;strokeWidth=6;" edge="1" parent="1">
          <mxGeometry width="50" height="50" relative="1" as="geometry">
            <mxPoint x="1735" y="907.4999999999995" as="sourcePoint" />
            <mxPoint x="1745" y="887.4999999999995" as="targetPoint" />
            <Array as="points" />
          </mxGeometry>
        </mxCell>
        <mxCell id="_FiJG16ojwSEJQpr9RZ7-180" value="" style="endArrow=none;html=1;strokeWidth=6;" edge="1" parent="1">
          <mxGeometry width="50" height="50" relative="1" as="geometry">
            <mxPoint x="1715" y="907.4999999999995" as="sourcePoint" />
            <mxPoint x="1725" y="887.4999999999995" as="targetPoint" />
            <Array as="points" />
          </mxGeometry>
        </mxCell>
        <mxCell id="_FiJG16ojwSEJQpr9RZ7-181" value="" style="endArrow=none;html=1;jumpStyle=arc;entryX=1;entryY=0.5;entryDx=0;entryDy=0;exitX=0.5;exitY=1;exitDx=0;exitDy=0;strokeWidth=6;" edge="1" parent="1" source="_FiJG16ojwSEJQpr9RZ7-192" target="_FiJG16ojwSEJQpr9RZ7-158">
          <mxGeometry width="50" height="50" relative="1" as="geometry">
            <mxPoint x="2110" y="240" as="sourcePoint" />
            <mxPoint x="2110" y="1000" as="targetPoint" />
            <Array as="points" />
          </mxGeometry>
        </mxCell>
        <mxCell id="_FiJG16ojwSEJQpr9RZ7-182" value="" style="endArrow=none;html=1;strokeWidth=6;" edge="1" parent="1">
          <mxGeometry width="50" height="50" relative="1" as="geometry">
            <mxPoint x="1400" y="1549.9999999999995" as="sourcePoint" />
            <mxPoint x="1400" y="1439.9999999999995" as="targetPoint" />
          </mxGeometry>
        </mxCell>
        <mxCell id="_FiJG16ojwSEJQpr9RZ7-183" value="" style="endArrow=none;html=1;strokeWidth=6;" edge="1" parent="1">
          <mxGeometry width="50" height="50" relative="1" as="geometry">
            <mxPoint x="1550" y="1549.9999999999995" as="sourcePoint" />
            <mxPoint x="1550" y="1439.9999999999995" as="targetPoint" />
          </mxGeometry>
        </mxCell>
        <mxCell id="_FiJG16ojwSEJQpr9RZ7-184" value="" style="endArrow=none;html=1;strokeWidth=6;" edge="1" parent="1">
          <mxGeometry width="50" height="50" relative="1" as="geometry">
            <mxPoint x="1400" y="1549.9999999999995" as="sourcePoint" />
            <mxPoint x="1550" y="1549.9999999999995" as="targetPoint" />
          </mxGeometry>
        </mxCell>
        <mxCell id="_FiJG16ojwSEJQpr9RZ7-185" value="" style="endArrow=none;html=1;exitX=0.5;exitY=0;exitDx=0;exitDy=0;entryX=0.5;entryY=1;entryDx=0;entryDy=0;strokeWidth=6;" edge="1" parent="1" source="_FiJG16ojwSEJQpr9RZ7-188">
          <mxGeometry width="50" height="50" relative="1" as="geometry">
            <mxPoint x="1200" y="1170" as="sourcePoint" />
            <mxPoint x="1200" y="812.5" as="targetPoint" />
          </mxGeometry>
        </mxCell>
        <mxCell id="_FiJG16ojwSEJQpr9RZ7-186" value="" style="edgeStyle=orthogonalEdgeStyle;rounded=0;jumpStyle=none;jumpSize=6;orthogonalLoop=1;jettySize=auto;html=1;startSize=12;endArrow=none;endFill=0;strokeWidth=6;" edge="1" parent="1" source="_FiJG16ojwSEJQpr9RZ7-188">
          <mxGeometry relative="1" as="geometry">
            <mxPoint x="1400" y="908" as="targetPoint" />
            <Array as="points">
              <mxPoint x="1400" y="955" />
            </Array>
          </mxGeometry>
        </mxCell>
        <mxCell id="_FiJG16ojwSEJQpr9RZ7-187" value="" style="edgeStyle=orthogonalEdgeStyle;rounded=0;orthogonalLoop=1;jettySize=auto;html=1;endArrow=none;endFill=0;strokeWidth=6;" edge="1" parent="1" source="_FiJG16ojwSEJQpr9RZ7-188">
          <mxGeometry relative="1" as="geometry">
            <mxPoint x="930" y="907" as="targetPoint" />
          </mxGeometry>
        </mxCell>
        <mxCell id="_FiJG16ojwSEJQpr9RZ7-188" value="" style="ellipse;whiteSpace=wrap;html=1;aspect=fixed;fillColor=#000000;strokeWidth=6;" vertex="1" parent="1">
          <mxGeometry x="1195" y="950" width="10" height="10" as="geometry" />
        </mxCell>
        <mxCell id="_FiJG16ojwSEJQpr9RZ7-189" value="" style="endArrow=none;html=1;exitX=0;exitY=0.5;exitDx=0;exitDy=0;entryX=0.5;entryY=1;entryDx=0;entryDy=0;strokeWidth=6;" edge="1" parent="1" source="_FiJG16ojwSEJQpr9RZ7-153" target="_FiJG16ojwSEJQpr9RZ7-188">
          <mxGeometry width="50" height="50" relative="1" as="geometry">
            <mxPoint x="1200" y="1170" as="sourcePoint" />
            <mxPoint x="1200" y="812.5" as="targetPoint" />
          </mxGeometry>
        </mxCell>
        <mxCell id="_FiJG16ojwSEJQpr9RZ7-190" value="" style="edgeStyle=orthogonalEdgeStyle;rounded=0;jumpStyle=none;jumpSize=6;orthogonalLoop=1;jettySize=auto;html=1;startSize=12;endArrow=none;endFill=0;entryX=0.5;entryY=1;entryDx=0;entryDy=0;strokeWidth=6;" edge="1" parent="1" target="_FiJG16ojwSEJQpr9RZ7-157">
          <mxGeometry relative="1" as="geometry">
            <mxPoint x="1830" y="1439.9999999999995" as="sourcePoint" />
            <mxPoint x="1855" y="1414.9999999999998" as="targetPoint" />
            <Array as="points">
              <mxPoint x="1830" y="1410" />
              <mxPoint x="2110" y="1410" />
            </Array>
          </mxGeometry>
        </mxCell>
        <mxCell id="_FiJG16ojwSEJQpr9RZ7-191" value="" style="edgeStyle=orthogonalEdgeStyle;rounded=0;jumpStyle=arc;jumpSize=6;orthogonalLoop=1;jettySize=auto;html=1;startSize=12;endArrow=none;endFill=0;strokeWidth=6;" edge="1" parent="1" source="_FiJG16ojwSEJQpr9RZ7-192">
          <mxGeometry relative="1" as="geometry">
            <mxPoint x="1785" y="907" as="targetPoint" />
            <Array as="points">
              <mxPoint x="1785" y="954" />
              <mxPoint x="1785" y="910" />
            </Array>
          </mxGeometry>
        </mxCell>
        <mxCell id="_FiJG16ojwSEJQpr9RZ7-192" value="" style="ellipse;whiteSpace=wrap;html=1;aspect=fixed;fillColor=#000000;strokeWidth=6;" vertex="1" parent="1">
          <mxGeometry x="2103.25" y="947.5" width="12.5" height="12.5" as="geometry" />
        </mxCell>
        <mxCell id="_FiJG16ojwSEJQpr9RZ7-193" value="" style="endArrow=none;html=1;jumpStyle=arc;entryX=0.5;entryY=0;entryDx=0;entryDy=0;strokeWidth=6;" edge="1" parent="1" target="_FiJG16ojwSEJQpr9RZ7-192">
          <mxGeometry width="50" height="50" relative="1" as="geometry">
            <mxPoint x="2111" y="660" as="sourcePoint" />
            <mxPoint x="2109.5" y="1170" as="targetPoint" />
            <Array as="points" />
          </mxGeometry>
        </mxCell>
        <mxCell id="_FiJG16ojwSEJQpr9RZ7-194" value="" style="edgeStyle=orthogonalEdgeStyle;rounded=0;jumpStyle=none;jumpSize=6;orthogonalLoop=1;jettySize=auto;html=1;startSize=12;endArrow=none;endFill=0;entryX=0;entryY=0.5;entryDx=0;entryDy=0;strokeWidth=6;" edge="1" parent="1" target="_FiJG16ojwSEJQpr9RZ7-150">
          <mxGeometry relative="1" as="geometry">
            <mxPoint x="1480" y="1439.9999999999995" as="sourcePoint" />
            <mxPoint x="1455" y="1415" as="targetPoint" />
            <Array as="points">
              <mxPoint x="1480" y="1410" />
              <mxPoint x="1400" y="1410" />
              <mxPoint x="1400" y="1325" />
              <mxPoint x="1200" y="1325" />
            </Array>
          </mxGeometry>
        </mxCell>
        <mxCell id="_FiJG16ojwSEJQpr9RZ7-195" value="" style="ellipse;whiteSpace=wrap;html=1;aspect=fixed;fillColor=#000000;strokeWidth=6;" vertex="1" parent="1">
          <mxGeometry x="1394" y="1319" width="12.5" height="12.5" as="geometry" />
        </mxCell>
        <mxCell id="_FiJG16ojwSEJQpr9RZ7-202" value="" style="ellipse;whiteSpace=wrap;html=1;aspect=fixed;fillColor=#000000;strokeWidth=6;" vertex="1" parent="1">
          <mxGeometry x="1894" y="1316" width="12.5" height="12.5" as="geometry" />
        </mxCell>
        <mxCell id="_FiJG16ojwSEJQpr9RZ7-204" value="" style="endArrow=none;html=1;strokeWidth=6;" edge="1" parent="1">
          <mxGeometry width="50" height="50" relative="1" as="geometry">
            <mxPoint x="1900" y="1410" as="sourcePoint" />
            <mxPoint x="1900" y="1328" as="targetPoint" />
          </mxGeometry>
        </mxCell>
        <mxCell id="_FiJG16ojwSEJQpr9RZ7-206" value="" style="rounded=0;whiteSpace=wrap;html=1;fillColor=#FFFFFF;strokeWidth=6;" vertex="1" parent="1">
          <mxGeometry x="1500" y="1220" width="180" height="60" as="geometry" />
        </mxCell>
        <mxCell id="_FiJG16ojwSEJQpr9RZ7-207" value="" style="endArrow=none;html=1;exitX=0.5;exitY=1;exitDx=0;exitDy=0;entryX=0.5;entryY=0;entryDx=0;entryDy=0;strokeWidth=6;" edge="1" parent="1" source="_FiJG16ojwSEJQpr9RZ7-206" target="_FiJG16ojwSEJQpr9RZ7-206">
          <mxGeometry width="50" height="50" relative="1" as="geometry">
            <mxPoint x="1569.5" y="1270" as="sourcePoint" />
            <mxPoint x="1619.5" y="1220" as="targetPoint" />
          </mxGeometry>
        </mxCell>
        <mxCell id="_FiJG16ojwSEJQpr9RZ7-208" value="" style="endArrow=classic;html=1;entryX=0.75;entryY=0;entryDx=0;entryDy=0;strokeWidth=6;exitX=0.75;exitY=1;exitDx=0;exitDy=0;" edge="1" parent="1" target="_FiJG16ojwSEJQpr9RZ7-206" source="_FiJG16ojwSEJQpr9RZ7-206">
          <mxGeometry width="50" height="50" relative="1" as="geometry">
            <mxPoint x="1649.5" y="1279.9999999999995" as="sourcePoint" />
            <mxPoint x="1699.5" y="1230" as="targetPoint" />
          </mxGeometry>
        </mxCell>
        <mxCell id="_FiJG16ojwSEJQpr9RZ7-210" value="" style="endArrow=none;html=1;strokeWidth=6;" edge="1" parent="1">
          <mxGeometry width="50" height="50" relative="1" as="geometry">
            <mxPoint x="1590" y="1195.0000000000005" as="sourcePoint" />
            <mxPoint x="1590" y="1195.0000000000005" as="targetPoint" />
          </mxGeometry>
        </mxCell>
        <mxCell id="_FiJG16ojwSEJQpr9RZ7-211" value="" style="endArrow=none;html=1;strokeWidth=6;" edge="1" parent="1">
          <mxGeometry width="50" height="50" relative="1" as="geometry">
            <mxPoint x="1520" y="1239.8999999999994" as="sourcePoint" />
            <mxPoint x="1540" y="1239.8999999999994" as="targetPoint" />
          </mxGeometry>
        </mxCell>
        <mxCell id="_FiJG16ojwSEJQpr9RZ7-205" value="" style="endArrow=none;html=1;strokeWidth=6;entryX=0.08;entryY=0.72;entryDx=0;entryDy=0;entryPerimeter=0;rounded=0;exitX=0.385;exitY=-0.037;exitDx=0;exitDy=0;exitPerimeter=0;" edge="1" parent="1" source="_FiJG16ojwSEJQpr9RZ7-206" target="_FiJG16ojwSEJQpr9RZ7-202">
          <mxGeometry width="50" height="50" relative="1" as="geometry">
            <mxPoint x="1588" y="1260" as="sourcePoint" />
            <mxPoint x="1750" y="1390" as="targetPoint" />
            <Array as="points">
              <mxPoint x="1530" y="1325" />
            </Array>
          </mxGeometry>
        </mxCell>
        <mxCell id="_FiJG16ojwSEJQpr9RZ7-212" value="" style="endArrow=none;html=1;strokeWidth=6;entryX=0.165;entryY=-0.006;entryDx=0;entryDy=0;entryPerimeter=0;" edge="1" parent="1" target="_FiJG16ojwSEJQpr9RZ7-206">
          <mxGeometry width="50" height="50" relative="1" as="geometry">
            <mxPoint x="1530" y="1240" as="sourcePoint" />
            <mxPoint x="1550" y="1170" as="targetPoint" />
          </mxGeometry>
        </mxCell>
        <mxCell id="_FiJG16ojwSEJQpr9RZ7-213" value="" style="endArrow=none;html=1;strokeWidth=6;" edge="1" parent="1">
          <mxGeometry width="50" height="50" relative="1" as="geometry">
            <mxPoint x="1570" y="1140" as="sourcePoint" />
            <mxPoint x="1570" y="1220" as="targetPoint" />
          </mxGeometry>
        </mxCell>
      </root>
    </mxGraphModel>
  </diagram>
</mxfile>
